<svg xmlns="http://www.w3.org/2000/svg" xmlns:xlink="http://www.w3.org/1999/xlink" version="1.1" x="0px" y="0px" viewBox="0 0 50 62.5" enable-background="new 0 0 50 50" xml:space="preserve"><g><path d="M49,25L49,25c-1.1-0.8-1.9-2-2.1-3.3c-0.6-3.6-2-7-4.1-9.8c-0.8-1.1-1.1-2.5-0.9-3.8l0,0l0,0c-1.3,0.2-2.7-0.1-3.8-0.9   c-2.8-2.1-6.1-3.5-9.8-4.1C27,2.9,25.8,2.2,25,1l0,0l0,0c-0.8,1.1-2,1.9-3.4,2.1c-3.6,0.6-6.9,2-9.8,4.1C10.8,7.9,9.4,8.3,8.1,8   l0,0l0,0c0.2,1.3-0.1,2.7-0.9,3.8c-2.1,2.8-3.5,6.2-4.1,9.8C2.9,23,2.1,24.2,1,25l0,0l0,0c1.1,0.8,1.8,2,2.1,3.4   c0.6,3.6,2,7,4.1,9.8C7.9,39.2,8.3,40.6,8,42l0,0h0c1.3-0.3,2.7,0.1,3.8,0.9c2.8,2.1,6.1,3.5,9.8,4.1c1.3,0.2,2.5,0.9,3.3,2l0,0   l0,0c0.8-1.1,2-1.8,3.4-2c3.6-0.5,6.9-2,9.8-4.1c1.1-0.8,2.5-1.2,3.8-0.9l0,0l0,0c-0.2-1.3,0.1-2.7,0.9-3.8   c2.1-2.8,3.5-6.1,4.1-9.7C47.1,27,47.9,25.8,49,25L49,25z M23,43.4c-8.5-0.9-15.3-7.7-16.3-16.2C5.3,16.1,14.1,6.5,25,6.5   c10.2,0,18.5,8.3,18.5,18.5C43.5,35.9,34.1,44.6,23,43.4z"/><path d="M25,8.4C15.8,8.4,8.4,15.8,8.4,25c0,9.2,7.5,16.6,16.6,16.6c9.2,0,16.6-7.5,16.6-16.6C41.6,15.8,34.2,8.4,25,8.4z    M36.1,17.6c0.4-0.3,1-0.1,1.3,0.3c0.3,0.4,0.1,1-0.3,1.3s-1,0.1-1.3-0.3C35.5,18.4,35.6,17.8,36.1,17.6z M30.9,13   c0.3-0.4,0.8-0.6,1.3-0.3c0.4,0.3,0.6,0.8,0.3,1.3c-0.3,0.4-0.8,0.6-1.3,0.3C30.8,14,30.6,13.5,30.9,13z M25,10.3   c0.8,0,1.4,0.6,1.4,1.4c0,0.8-0.6,1.4-1.4,1.4c-0.8,0-1.4-0.6-1.4-1.4C23.6,10.9,24.2,10.3,25,10.3z M10.3,25   c0-0.8,0.6-1.4,1.4-1.4s1.4,0.6,1.4,1.4c0,0.8-0.6,1.4-1.4,1.4S10.3,25.8,10.3,25z M13.9,32.5c-0.5,0.3-1,0.1-1.3-0.3   c-0.3-0.5-0.1-1,0.3-1.3c0.4-0.3,1-0.1,1.3,0.3C14.5,31.6,14.4,32.2,13.9,32.5z M14.3,18.8c-0.3,0.4-0.8,0.6-1.3,0.3   s-0.6-0.8-0.3-1.3c0.3-0.4,0.8-0.6,1.3-0.3C14.4,17.8,14.5,18.4,14.3,18.8z M19.2,37c-0.3,0.4-0.8,0.6-1.3,0.3   c-0.5-0.3-0.6-0.8-0.3-1.3c0.3-0.4,0.8-0.6,1.3-0.3C19.3,36,19.4,36.6,19.2,37z M18.8,14.3c-0.4,0.3-1,0.1-1.3-0.3   c-0.3-0.4-0.1-1,0.3-1.3c0.4-0.3,1-0.1,1.3,0.3C19.4,13.5,19.3,14,18.8,14.3z M25,39.7c-0.8,0-1.4-0.6-1.4-1.4   c0-0.8,0.6-1.4,1.4-1.4c0.8,0,1.4,0.6,1.4,1.4C26.4,39.1,25.8,39.7,25,39.7z M32.1,37.3c-0.5,0.3-1,0.1-1.3-0.3   c-0.3-0.4-0.1-1,0.3-1.3c0.4-0.3,1-0.1,1.3,0.3C32.7,36.5,32.6,37.1,32.1,37.3z M31.3,29.7c-0.6-0.3-0.7-0.7-0.7-1.1l-4.5-2.3   c-0.3,0.3-0.7,0.4-1.1,0.4c-1,0-1.7-0.8-1.7-1.7c0-0.8,0.5-1.5,1.3-1.7v-4.7c-0.3-0.1-0.6-0.4-0.6-1.1c0-1.2,1.1-3.2,1.1-3.2   s1.1,2,1.1,3.2c0,0.7-0.3,1-0.6,1.1v4.7c0.7,0.2,1.3,0.9,1.3,1.7c0,0.2,0,0.4-0.1,0.6l4.4,2.3c0.3-0.2,0.7-0.4,1.3-0.1   c1.1,0.5,2.3,2.4,2.3,2.4S32.4,30.3,31.3,29.7z M37.3,32.1c-0.3,0.4-0.8,0.6-1.3,0.3c-0.5-0.3-0.6-0.8-0.3-1.3   c0.3-0.4,0.8-0.6,1.3-0.3C37.4,31.1,37.6,31.7,37.3,32.1z M38.3,26.4c-0.8,0-1.4-0.6-1.4-1.4c0-0.8,0.6-1.4,1.4-1.4   c0.8,0,1.4,0.6,1.4,1.4C39.7,25.8,39.1,26.4,38.3,26.4z"/></g><text x="0" y="65" fill="#000000" font-size="5px" font-weight="bold" font-family="'Helvetica Neue', Helvetica, Arial-Unicode, Arial, Sans-serif">Created by Vectors Market</text><text x="0" y="70" fill="#000000" font-size="5px" font-weight="bold" font-family="'Helvetica Neue', Helvetica, Arial-Unicode, Arial, Sans-serif">from the Noun Project</text></svg>